# xmcd
#
# Track frame offsets: 
#        150
#        14595
#        29809
#        47288
#        60902
#        78027
#        94520
#        108732
#        125356
#        142173
#        158790
#        175200
#
# Disc length: 2636 seconds
#
# Revision: 1
# Processed by: cddbd v1.5.2PL0 Copyright (c) Steve Scherf et al.
# Submitted via: ExactAudioCopyFreeDBPlugin 1.0
#
DISCID=960a4a0c
DTITLE=O'Connor Band with Mark O'Connor - Coming Home
DYEAR=2016
DGENRE=Country
TTITLE0=Always Do
TTITLE1=Coming Home
TTITLE2=I Haven’t Said I Love You in a While
TTITLE3=Ruby, Are You Mad at Your Man?
TTITLE4=What Have I Been Saying?
TTITLE5=Jerusalem Ridge
TTITLE6=The Sweet Ones
TTITLE7=Blacktop Boy
TTITLE8=You Too
TTITLE9=Fishers Hornpipe
TTITLE10=Old Black Creek
TTITLE11=Fiddler Going Home
EXTD=
EXTT0=
EXTT1=
EXTT2=
EXTT3=
EXTT4=
EXTT5=
EXTT6=
EXTT7=
EXTT8=
EXTT9=
EXTT10=
EXTT11=
PLAYORDER=
